<svg width="70" height="70" viewBox="0 0 70 70" fill="none" xmlns="http://www.w3.org/2000/svg">
<path d="M70 35C70 54.33 54.33 70 35 70C15.67 70 0 54.33 0 35C0 15.67 15.67 0 35 0C54.33 0 70 15.67 70 35Z" fill="#FCFAFA"/>
<path fill-rule="evenodd" clip-rule="evenodd" d="M25 47V47C23.896 47 23 46.104 23 45C23 43.896 23.896 43 25 43C26.104 43 27 43.896 27 45C27 46.104 26.104 47 25 47M45 43V43C46.104 43 47 43.896 47 45C47 46.104 46.104 47 45 47C43.896 47 43 46.104 43 45C43 43.896 43.896 43 45 43M28.2041 19H41.7961C42.7921 19 43.6361 19.732 43.7761 20.718L46.3881 39H23.6121L26.2241 20.718C26.3641 19.732 27.2081 19 28.2041 19M55 33V33C55 31.896 54.104 31 53 31H49.286L47.49 18.434C47.21 16.464 45.522 15 43.53 15H26.47C24.478 15 22.79 16.464 22.51 18.434L20.714 31H17C15.896 31 15 31.896 15 33C15 34.104 15.896 35 17 35H20.142L19.572 39H19C16.79 39 15 40.79 15 43V47C15 49.21 16.79 51 19 51V53C19 54.104 19.896 55 21 55H25C26.104 55 27 54.104 27 53V51H43V53C43 54.104 43.896 55 45 55H49C50.104 55 51 54.104 51 53V51C53.21 51 55 49.21 55 47V43C55 40.79 53.21 39 51 39H50.428L49.858 35H53C54.104 35 55 34.104 55 33" fill="#304659"/>
</svg>
