<svg width="70" height="70" viewBox="0 0 70 70" fill="none" xmlns="http://www.w3.org/2000/svg">
<circle cx="35" cy="35" r="35" fill="#FCFAFA"/>
<path fill-rule="evenodd" clip-rule="evenodd" d="M35 35C30.567 35 26.9619 31.412 26.9619 27C26.9619 22.588 30.567 19 35 19C39.433 19 43.0381 22.588 43.0381 27C43.0381 31.412 39.433 35 35 35M42.5518 36.346C45.7409 33.792 47.5997 29.662 46.9165 25.14C46.1227 19.894 41.7379 15.696 36.4448 15.084C29.1402 14.238 22.9429 19.898 22.9429 27C22.9429 30.78 24.7032 34.148 27.4482 36.346C20.7043 38.868 15.7809 44.79 15.0093 52.782C14.8967 53.964 15.8231 55 17.0168 55C18.0396 55 18.9118 54.232 19.0022 53.218C19.808 44.292 26.6745 39 35 39C43.3255 39 50.192 44.292 50.9978 53.218C51.0882 54.232 51.9604 55 52.9832 55C54.1769 55 55.1033 53.964 54.9907 52.782C54.2191 44.79 49.2957 38.868 42.5518 36.346" fill="#304659"/>
</svg>
