<svg width="226" height="28" viewBox="0 0 226 28" fill="none" xmlns="http://www.w3.org/2000/svg">
<path d="M19.386 20.61C19.65 20.61 19.884 20.712 20.088 20.916L21.996 22.986C20.94 24.294 19.638 25.296 18.09 25.992C16.554 26.688 14.706 27.036 12.546 27.036C10.614 27.036 8.874 26.706 7.326 26.046C5.79 25.386 4.476 24.468 3.384 23.292C2.292 22.116 1.452 20.712 0.864 19.08C0.288 17.448 0 15.666 0 13.734C0 11.778 0.312 9.99 0.936 8.37C1.56 6.738 2.436 5.334 3.564 4.158C4.704 2.982 6.06 2.07 7.632 1.422C9.204 0.762001 10.944 0.432001 12.852 0.432001C14.748 0.432001 16.428 0.744001 17.892 1.368C19.368 1.992 20.622 2.808 21.654 3.816L20.034 6.066C19.938 6.21 19.812 6.336 19.656 6.444C19.512 6.552 19.308 6.606 19.044 6.606C18.864 6.606 18.678 6.558 18.486 6.462C18.294 6.354 18.084 6.228 17.856 6.084C17.628 5.928 17.364 5.76 17.064 5.58C16.764 5.4 16.416 5.238 16.02 5.094C15.624 4.938 15.162 4.812 14.634 4.716C14.118 4.608 13.518 4.554 12.834 4.554C11.67 4.554 10.602 4.764 9.63 5.184C8.67 5.592 7.842 6.192 7.146 6.984C6.45 7.764 5.91 8.724 5.526 9.864C5.142 10.992 4.95 12.282 4.95 13.734C4.95 15.198 5.154 16.5 5.562 17.64C5.982 18.78 6.546 19.74 7.254 20.52C7.962 21.3 8.796 21.9 9.756 22.32C10.716 22.728 11.748 22.932 12.852 22.932C13.512 22.932 14.106 22.896 14.634 22.824C15.174 22.752 15.666 22.638 16.11 22.482C16.566 22.326 16.992 22.128 17.388 21.888C17.796 21.636 18.198 21.33 18.594 20.97C18.714 20.862 18.84 20.778 18.972 20.718C19.104 20.646 19.242 20.61 19.386 20.61Z" fill="#FCFAFA"/>
<path d="M29.0568 10.26C29.7768 9.588 30.5688 9.042 31.4328 8.622C32.2968 8.202 33.3108 7.992 34.4748 7.992C35.4828 7.992 36.3768 8.166 37.1568 8.514C37.9368 8.85 38.5848 9.33 39.1008 9.954C39.6288 10.566 40.0248 11.304 40.2888 12.168C40.5648 13.02 40.7028 13.962 40.7028 14.994V26.748H36.2568V14.994C36.2568 13.866 35.9988 12.996 35.4828 12.384C34.9668 11.76 34.1808 11.448 33.1248 11.448C32.3568 11.448 31.6368 11.622 30.9648 11.97C30.2928 12.318 29.6568 12.792 29.0568 13.392V26.748H24.6108V0H29.0568V10.26Z" fill="#FCFAFA"/>
<path d="M56.8291 15.39C56.8291 14.814 56.7451 14.274 56.5771 13.77C56.4211 13.254 56.1811 12.804 55.8571 12.42C55.5331 12.036 55.1191 11.736 54.6151 11.52C54.1231 11.292 53.5471 11.178 52.8871 11.178C51.6031 11.178 50.5891 11.544 49.8451 12.276C49.1131 13.008 48.6451 14.046 48.4411 15.39H56.8291ZM48.3511 18.072C48.4231 19.02 48.5911 19.842 48.8551 20.538C49.1191 21.222 49.4671 21.792 49.8991 22.248C50.3311 22.692 50.8411 23.028 51.4291 23.256C52.0291 23.472 52.6891 23.58 53.4091 23.58C54.1291 23.58 54.7471 23.496 55.2631 23.328C55.7911 23.16 56.2471 22.974 56.6311 22.77C57.0271 22.566 57.3691 22.38 57.6571 22.212C57.9571 22.044 58.2451 21.96 58.5211 21.96C58.8931 21.96 59.1691 22.098 59.3491 22.374L60.6271 23.994C60.1351 24.57 59.5831 25.056 58.9711 25.452C58.3591 25.836 57.7171 26.148 57.0451 26.388C56.3851 26.616 55.7071 26.778 55.0111 26.874C54.3271 26.97 53.6611 27.018 53.0131 27.018C51.7291 27.018 50.5351 26.808 49.4311 26.388C48.3271 25.956 47.3671 25.326 46.5511 24.498C45.7351 23.658 45.0931 22.626 44.6251 21.402C44.1571 20.166 43.9231 18.738 43.9231 17.118C43.9231 15.858 44.1271 14.676 44.5351 13.572C44.9431 12.456 45.5251 11.49 46.2811 10.674C47.0491 9.846 47.9791 9.192 49.0711 8.712C50.1751 8.232 51.4171 7.992 52.7971 7.992C53.9611 7.992 55.0351 8.178 56.0191 8.55C57.0031 8.922 57.8491 9.468 58.5571 10.188C59.2651 10.896 59.8171 11.772 60.2131 12.816C60.6211 13.848 60.8251 15.03 60.8251 16.362C60.8251 17.034 60.7531 17.49 60.6091 17.73C60.4651 17.958 60.1891 18.072 59.7811 18.072H48.3511Z" fill="#FCFAFA"/>
<path d="M77.3916 12.186C77.2596 12.354 77.1276 12.486 76.9956 12.582C76.8756 12.678 76.6956 12.726 76.4556 12.726C76.2276 12.726 76.0056 12.66 75.7896 12.528C75.5736 12.384 75.3156 12.228 75.0156 12.06C74.7156 11.88 74.3556 11.724 73.9356 11.592C73.5276 11.448 73.0176 11.376 72.4056 11.376C71.6256 11.376 70.9416 11.52 70.3536 11.808C69.7656 12.084 69.2736 12.486 68.8776 13.014C68.4936 13.542 68.2056 14.184 68.0136 14.94C67.8216 15.684 67.7256 16.53 67.7256 17.478C67.7256 18.462 67.8276 19.338 68.0316 20.106C68.2476 20.874 68.5536 21.522 68.9496 22.05C69.3456 22.566 69.8256 22.962 70.3896 23.238C70.9536 23.502 71.5896 23.634 72.2976 23.634C73.0056 23.634 73.5756 23.55 74.0076 23.382C74.4516 23.202 74.8236 23.01 75.1236 22.806C75.4236 22.59 75.6816 22.398 75.8976 22.23C76.1256 22.05 76.3776 21.96 76.6536 21.96C77.0136 21.96 77.2836 22.098 77.4636 22.374L78.7416 23.994C78.2496 24.57 77.7156 25.056 77.1396 25.452C76.5636 25.836 75.9636 26.148 75.3396 26.388C74.7276 26.616 74.0916 26.778 73.4316 26.874C72.7836 26.97 72.1356 27.018 71.4876 27.018C70.3476 27.018 69.2736 26.808 68.2656 26.388C67.2576 25.956 66.3756 25.332 65.6196 24.516C64.8636 23.7 64.2636 22.704 63.8196 21.528C63.3876 20.34 63.1716 18.99 63.1716 17.478C63.1716 16.122 63.3636 14.868 63.7476 13.716C64.1436 12.552 64.7196 11.55 65.4756 10.71C66.2316 9.858 67.1676 9.192 68.2836 8.712C69.3996 8.232 70.6836 7.992 72.1356 7.992C73.5156 7.992 74.7216 8.214 75.7536 8.658C76.7976 9.102 77.7336 9.738 78.5616 10.566L77.3916 12.186Z" fill="#FCFAFA"/>
<path d="M85.9747 0V15.318H86.8027C87.1028 15.318 87.3367 15.282 87.5047 15.21C87.6847 15.126 87.8647 14.964 88.0447 14.724L92.6348 9.054C92.8268 8.802 93.0368 8.61 93.2647 8.478C93.5047 8.346 93.8107 8.28 94.1827 8.28H98.2507L92.5088 15.138C92.1008 15.678 91.6568 16.092 91.1768 16.38C91.4287 16.56 91.6507 16.77 91.8428 17.01C92.0468 17.25 92.2387 17.508 92.4187 17.784L98.5747 26.748H94.5607C94.2127 26.748 93.9128 26.694 93.6608 26.586C93.4088 26.466 93.1987 26.256 93.0307 25.956L88.3148 18.954C88.1468 18.678 87.9727 18.498 87.7927 18.414C87.6127 18.33 87.3428 18.288 86.9827 18.288H85.9747V26.748H81.5287V0H85.9747Z" fill="#FCFAFA"/>
<path d="M110.635 16.668V26.748H105.811V16.668L96.3253 0.719999H100.591C101.011 0.719999 101.341 0.822 101.581 1.026C101.833 1.23 102.043 1.488 102.211 1.8L106.963 10.494C107.239 11.01 107.479 11.496 107.683 11.952C107.899 12.408 108.091 12.864 108.259 13.32C108.415 12.864 108.595 12.408 108.799 11.952C109.003 11.496 109.237 11.01 109.501 10.494L114.235 1.8C114.367 1.536 114.565 1.29 114.829 1.062C115.093 0.834 115.429 0.719999 115.837 0.719999H120.121L110.635 16.668Z" fill="#FCFAFA"/>
<path d="M126.193 7.992C127.561 7.992 128.803 8.214 129.919 8.658C131.047 9.102 132.007 9.732 132.799 10.548C133.603 11.364 134.221 12.36 134.653 13.536C135.085 14.712 135.301 16.026 135.301 17.478C135.301 18.942 135.085 20.262 134.653 21.438C134.221 22.614 133.603 23.616 132.799 24.444C132.007 25.272 131.047 25.908 129.919 26.352C128.803 26.796 127.561 27.018 126.193 27.018C124.813 27.018 123.559 26.796 122.431 26.352C121.303 25.908 120.337 25.272 119.533 24.444C118.741 23.616 118.123 22.614 117.679 21.438C117.247 20.262 117.031 18.942 117.031 17.478C117.031 16.026 117.247 14.712 117.679 13.536C118.123 12.36 118.741 11.364 119.533 10.548C120.337 9.732 121.303 9.102 122.431 8.658C123.559 8.214 124.813 7.992 126.193 7.992ZM126.193 23.598C127.729 23.598 128.863 23.082 129.595 22.05C130.339 21.018 130.711 19.506 130.711 17.514C130.711 15.522 130.339 14.004 129.595 12.96C128.863 11.916 127.729 11.394 126.193 11.394C124.633 11.394 123.475 11.922 122.719 12.978C121.975 14.022 121.603 15.534 121.603 17.514C121.603 19.494 121.975 21.006 122.719 22.05C123.475 23.082 124.633 23.598 126.193 23.598Z" fill="#FCFAFA"/>
<path d="M154.605 8.28V26.748H151.887C151.299 26.748 150.927 26.478 150.771 25.938L150.465 24.462C149.709 25.23 148.875 25.854 147.963 26.334C147.051 26.802 145.977 27.036 144.741 27.036C143.733 27.036 142.839 26.868 142.059 26.532C141.291 26.184 140.643 25.698 140.115 25.074C139.587 24.45 139.185 23.712 138.909 22.86C138.645 21.996 138.513 21.048 138.513 20.016V8.28H142.959V20.016C142.959 21.144 143.217 22.02 143.733 22.644C144.261 23.256 145.047 23.562 146.091 23.562C146.859 23.562 147.579 23.394 148.251 23.058C148.923 22.71 149.559 22.236 150.159 21.636V8.28H154.605Z" fill="#FCFAFA"/>
<path d="M163.207 11.484C163.783 10.38 164.467 9.516 165.259 8.892C166.051 8.256 166.987 7.938 168.067 7.938C168.919 7.938 169.603 8.124 170.119 8.496L169.831 11.826C169.771 12.042 169.681 12.198 169.561 12.294C169.453 12.378 169.303 12.42 169.111 12.42C168.931 12.42 168.661 12.39 168.301 12.33C167.953 12.27 167.611 12.24 167.275 12.24C166.783 12.24 166.345 12.312 165.961 12.456C165.577 12.6 165.229 12.81 164.917 13.086C164.617 13.35 164.347 13.674 164.107 14.058C163.879 14.442 163.663 14.88 163.459 15.372V26.748H159.013V8.28H161.623C162.079 8.28 162.397 8.364 162.577 8.532C162.757 8.688 162.877 8.976 162.937 9.396L163.207 11.484Z" fill="#FCFAFA"/>
<path d="M191.019 20.61C191.283 20.61 191.517 20.712 191.721 20.916L193.629 22.986C192.573 24.294 191.271 25.296 189.723 25.992C188.187 26.688 186.339 27.036 184.179 27.036C182.247 27.036 180.507 26.706 178.959 26.046C177.423 25.386 176.109 24.468 175.017 23.292C173.925 22.116 173.085 20.712 172.497 19.08C171.921 17.448 171.633 15.666 171.633 13.734C171.633 11.778 171.945 9.99 172.569 8.37C173.193 6.738 174.069 5.334 175.197 4.158C176.337 2.982 177.693 2.07 179.265 1.422C180.837 0.762001 182.577 0.432001 184.485 0.432001C186.381 0.432001 188.061 0.744001 189.525 1.368C191.001 1.992 192.255 2.808 193.287 3.816L191.667 6.066C191.571 6.21 191.445 6.336 191.289 6.444C191.145 6.552 190.941 6.606 190.677 6.606C190.497 6.606 190.311 6.558 190.119 6.462C189.927 6.354 189.717 6.228 189.489 6.084C189.261 5.928 188.997 5.76 188.697 5.58C188.397 5.4 188.049 5.238 187.653 5.094C187.257 4.938 186.795 4.812 186.267 4.716C185.751 4.608 185.151 4.554 184.467 4.554C183.303 4.554 182.235 4.764 181.263 5.184C180.303 5.592 179.475 6.192 178.779 6.984C178.083 7.764 177.543 8.724 177.159 9.864C176.775 10.992 176.583 12.282 176.583 13.734C176.583 15.198 176.787 16.5 177.195 17.64C177.615 18.78 178.179 19.74 178.887 20.52C179.595 21.3 180.429 21.9 181.389 22.32C182.349 22.728 183.381 22.932 184.485 22.932C185.145 22.932 185.739 22.896 186.267 22.824C186.807 22.752 187.299 22.638 187.743 22.482C188.199 22.326 188.625 22.128 189.021 21.888C189.429 21.636 189.831 21.33 190.227 20.97C190.347 20.862 190.473 20.778 190.605 20.718C190.737 20.646 190.875 20.61 191.019 20.61Z" fill="#FCFAFA"/>
<path d="M206 18.864C204.716 18.924 203.636 19.038 202.76 19.206C201.884 19.362 201.182 19.566 200.654 19.818C200.126 20.07 199.748 20.364 199.52 20.7C199.292 21.036 199.178 21.402 199.178 21.798C199.178 22.578 199.406 23.136 199.862 23.472C200.33 23.808 200.936 23.976 201.68 23.976C202.592 23.976 203.378 23.814 204.038 23.49C204.71 23.154 205.364 22.65 206 21.978V18.864ZM195.812 10.854C197.936 8.91 200.492 7.938 203.48 7.938C204.56 7.938 205.526 8.118 206.378 8.478C207.23 8.826 207.95 9.318 208.538 9.954C209.126 10.578 209.57 11.328 209.87 12.204C210.182 13.08 210.338 14.04 210.338 15.084V26.748H208.322C207.902 26.748 207.578 26.688 207.35 26.568C207.122 26.436 206.942 26.178 206.81 25.794L206.414 24.462C205.946 24.882 205.49 25.254 205.046 25.578C204.602 25.89 204.14 26.154 203.66 26.37C203.18 26.586 202.664 26.748 202.112 26.856C201.572 26.976 200.972 27.036 200.312 27.036C199.532 27.036 198.812 26.934 198.152 26.73C197.492 26.514 196.922 26.196 196.442 25.776C195.962 25.356 195.59 24.834 195.326 24.21C195.062 23.586 194.93 22.86 194.93 22.032C194.93 21.564 195.008 21.102 195.164 20.646C195.32 20.178 195.572 19.734 195.92 19.314C196.28 18.894 196.742 18.498 197.306 18.126C197.87 17.754 198.56 17.43 199.376 17.154C200.204 16.878 201.164 16.656 202.256 16.488C203.348 16.308 204.596 16.2 206 16.164V15.084C206 13.848 205.736 12.936 205.208 12.348C204.68 11.748 203.918 11.448 202.922 11.448C202.202 11.448 201.602 11.532 201.122 11.7C200.654 11.868 200.24 12.06 199.88 12.276C199.52 12.48 199.19 12.666 198.89 12.834C198.602 13.002 198.278 13.086 197.918 13.086C197.606 13.086 197.342 13.008 197.126 12.852C196.91 12.684 196.736 12.492 196.604 12.276L195.812 10.854Z" fill="#FCFAFA"/>
<path d="M218.719 11.484C219.295 10.38 219.979 9.516 220.771 8.892C221.563 8.256 222.499 7.938 223.579 7.938C224.431 7.938 225.115 8.124 225.631 8.496L225.343 11.826C225.283 12.042 225.193 12.198 225.073 12.294C224.965 12.378 224.815 12.42 224.623 12.42C224.443 12.42 224.173 12.39 223.813 12.33C223.465 12.27 223.123 12.24 222.787 12.24C222.295 12.24 221.857 12.312 221.473 12.456C221.089 12.6 220.741 12.81 220.429 13.086C220.129 13.35 219.859 13.674 219.619 14.058C219.391 14.442 219.175 14.88 218.971 15.372V26.748H214.525V8.28H217.135C217.591 8.28 217.909 8.364 218.089 8.532C218.269 8.688 218.389 8.976 218.449 9.396L218.719 11.484Z" fill="#FCFAFA"/>
</svg>
